<svg width="24" height="24" viewBox="0 0 24 24" fill="none" xmlns="http://www.w3.org/2000/svg">
  <path d="M20 11.5A8 8 0 0 1 8.3 18.6L4 20L5.4 15.9A8 8 0 1 1 20 11.5Z" stroke="#F7EFDF" stroke-width="1.8" stroke-linecap="round" stroke-linejoin="round"/>
  <path d="M9.3 9.5C9.5 9.1 9.8 9.1 10 9.1H10.5C10.7 9.1 10.9 9.2 11 9.4L11.7 11.1C11.8 11.3 11.8 11.5 11.6 11.6L11.2 12.2C11.1 12.3 11.1 12.5 11.2 12.6C11.7 13.4 12.3 14 13.1 14.5C13.2 14.6 13.4 14.6 13.5 14.5L14.1 14.1C14.2 14 14.4 14 14.6 14.1L16.3 14.8C16.5 14.9 16.6 15.1 16.6 15.3V15.8C16.6 16 16.5 16.3 16.2 16.5C15.8 16.7 15 16.8 13.6 16.3C11.9 15.8 10.4 14.3 9.7 12.6C9.2 11.2 9.2 10.4 9.3 9.5Z" stroke="#F7EFDF" stroke-width="1.8" stroke-linecap="round" stroke-linejoin="round"/>
</svg>
